<svg width="145.97424" height="175.07066" xmlns="http://www.w3.org/2000/svg">
 <defs>
  <pattern height="100" width="100" y="0" x="0" patternUnits="userSpaceOnUse" id="gridpattern">
   <image height="100" width="100" y="0" x="0"/>
  </pattern>
 </defs>
 <g>
  <title>Layer 1</title>
  <g id="layer1">
   <g id="g3629">
    <g id="g18421" transform="matrix(5.3120435,0,0,5.3120435,-1073.8782,-1807.1067) ">
     <path fill="#ffff00" stroke="#000000" stroke-width="0.66942" stroke-miterlimit="4" id="path18423" d="m228.28806,354.18015c0,1.70651 0.27878,14.76123 -0.34723,16.24051c-0.62607,1.47931 -3.09436,-3.66147 -4.2135,-2.54236c-1.11913,1.11914 -1.51408,2.15891 -2.99336,2.78491c-1.47928,0.62604 -3.10544,-2.867 -4.81195,-2.867c-1.70653,0 -3.33264,3.49304 -4.81195,2.867c-1.47928,-0.62601 -1.7403,-1.13004 -2.85944,-2.24918c-1.11911,-1.11914 -3.81067,3.53058 -4.43669,2.05127c-0.62602,-1.47928 -0.25798,-14.57864 -0.25798,-16.28516c0,-6.82608 5.53998,-12.36606 12.36606,-12.36606c6.82608,0 12.36604,5.53998 12.36604,12.36606z"/>
     <path fill="#ffffff" fill-opacity="0.58889" fill-rule="evenodd" stroke-width="1px" id="path18425" d="m217.1274,343.06406c-5.04156,0.19757 -7.01947,0.48343 -10.35715,5.08929c-2.69583,3.72009 -2.28375,18.17593 0.84821,16.5625c1.47321,-0.75894 -0.72119,-11.81992 1.74106,-15.35715c2.55988,-3.67743 11.5625,-6.11609 7.76788,-6.29465z"/>
     <path fill="#ffffff" stroke="#000000" stroke-width="0.5" stroke-miterlimit="4" id="path18427" d="m214.40416,352.52835a3.37054,3.48214 0 1 1 -6.74106,0a3.37054,3.48214 0 1 1 6.74106,0z"/>
     <path fill="#ffffff" stroke="#000000" stroke-width="0.5" stroke-miterlimit="4" id="path18429" d="m226.45773,352.7962a3.37054,3.48214 0 1 1 -6.74106,0a3.37054,3.48214 0 1 1 6.74106,0z"/>
     <path fill="#000000" stroke-width="0.5" stroke-miterlimit="4" id="path18431" d="m213.77509,351.54623a1.06535,1.02272 0 1 1 -2.13066,0a1.06535,1.02272 0 1 1 2.13066,0z"/>
     <path fill="#000000" stroke-width="0.5" stroke-miterlimit="4" id="path18433" d="m222.21259,353.77835a1.06535,1.02272 0 1 1 -2.13066,0a1.06535,1.02272 0 1 1 2.13066,0z"/>
     <path fill="#ffffff" fill-opacity="0.58889" fill-rule="evenodd" stroke-width="1px" id="path18435" d="m227.12735,355.02835c-0.4306,2.17749 -0.04535,3.50848 -2.72319,8.52679c-0.86545,1.62189 1.48085,2.46863 3.08037,4.0625c0.85614,0.85312 -1.38983,-2.60129 -0.71429,-4.24106c1.11252,-2.7005 0.77875,-9.80655 0.35712,-8.34824z"/>
    </g>
   </g>
  </g>
 </g>
</svg>